<svg width="750" xmlns="http://www.w3.org/2000/svg" height="750" id="screenshot-607ebaec-f31e-80c7-8005-e469cae6b774" viewBox="0 0 750 750" xmlns:xlink="http://www.w3.org/1999/xlink" fill="none" version="1.1"><g id="shape-607ebaec-f31e-80c7-8005-e469cae6b774"><defs><clipPath id="frame-clip-607ebaec-f31e-80c7-8005-e469cae6b774-render-1" class="frame-clip frame-clip-def"><rect rx="0" ry="0" x="0" y="0" width="750" height="750" transform="matrix(1.000000, 0.000000, 0.000000, 1.000000, 0.000000, 0.000000)"/></clipPath></defs><g><g><g clip-path="url(#frame-clip-607ebaec-f31e-80c7-8005-e469cae6b774-render-1)" fill="none"><g class="fills" id="fills-607ebaec-f31e-80c7-8005-e469cae6b774"><rect rx="0" ry="0" x="0" y="0" width="750" height="750" transform="matrix(1.000000, 0.000000, 0.000000, 1.000000, 0.000000, 0.000000)" class="frame-background"/></g><g class="frame-children"><g id="shape-7e03f78f-9a31-8012-8005-e4fc18d3c68c"><g><g><g fill="none"><g class="fills" id="fills-7e03f78f-9a31-8012-8005-e4fc18d3c68c"><rect rx="0" ry="0" x="75" y="75" width="600" height="600" transform="matrix(-1.000000, 0.000000, 0.000000, -1.000000, 750.000000, 750.000000)" class="frame-background"/></g><g class="frame-children"><g id="shape-7e03f78f-9a31-8012-8005-e4fc18d3c68d"><g class="fills" id="fills-7e03f78f-9a31-8012-8005-e4fc18d3c68d"><path d="M252.537,620.510L217.022,630.027C131.795,577.086,75.000,482.623,75.000,375.000C75.000,257.693,142.475,156.021,240.698,106.712L231.763,140.059L265.589,149.123C182.393,189.775,125.000,275.238,125.000,374.000C125.000,463.725,172.370,542.474,243.445,586.580L252.537,620.510ZM265.589,149.123L265.589,149.123Z" style="fill: rgb(39, 39, 54); fill-opacity: 1;"/></g></g></g></g></g></g></g><g id="shape-7e03f78f-9a31-8012-8005-e4fef4e11705"><g><g><g fill="none"><g class="fills" id="fills-7e03f78f-9a31-8012-8005-e4fef4e11705"><rect rx="0" ry="0" x="75" y="75" width="600" height="600" transform="matrix(1.000000, 0.000000, 0.000000, 1.000000, 0.000000, 0.000000)" class="frame-background"/></g><g class="frame-children"><g id="shape-7e03f78f-9a31-8012-8005-e4fef4e11706"><g class="fills" id="fills-7e03f78f-9a31-8012-8005-e4fef4e11706"><path d="M497.463,129.490L532.978,119.973C618.205,172.914,675.000,267.377,675.000,375.000C675.000,492.307,607.525,593.979,509.302,643.288L518.237,609.941L484.411,600.877C567.607,560.225,625.000,474.762,625.000,376.000C625.000,286.275,577.630,207.526,506.555,163.420L497.463,129.490ZM484.411,600.877L484.411,600.877Z" style="fill: rgb(105, 105, 181); fill-opacity: 1;"/></g></g></g></g></g></g></g><g id="shape-7e03f78f-9a31-8012-8005-e4fe3d686e01"><g><g><g fill="none"><g class="fills" id="fills-7e03f78f-9a31-8012-8005-e4fe3d686e01"><rect rx="0" ry="0" x="234" y="244" width="283" height="212.25" transform="matrix(1.000000, 0.000000, 0.000000, 1.000000, 0.000000, 0.000000)" class="frame-background"/></g><g class="frame-children"><g id="shape-7e03f78f-9a31-8012-8005-e4fe3d686e02" rx="0" ry="0"><g clip-path="url(#render-7-7e03f78f-9a31-8012-8005-e4fe3d686e03-clip)"><g mask="url(#render-7-7e03f78f-9a31-8012-8005-e4fe3d686e03-mask)"><defs><filter id="render-7-7e03f78f-9a31-8012-8005-e4fe3d686e03-filter"><feFlood flood-color="white" result="FloodResult"/><feComposite in="FloodResult" in2="SourceGraphic" operator="in" result="comp"/></filter><clipPath id="render-7-7e03f78f-9a31-8012-8005-e4fe3d686e03-clip" class="mask-clip-path"><polyline points="234,244 517,244 517,456.25 234,456.25"/></clipPath><mask width="283" maskUnits="userSpaceOnUse" height="212.25" class="mask-shape" x="234" id="render-7-7e03f78f-9a31-8012-8005-e4fe3d686e03-mask" data-old-y="244" data-old-width="283" data-old-x="234" y="244" data-old-height="212.25"><g filter="url(#render-7-7e03f78f-9a31-8012-8005-e4fe3d686e03-filter)"><g id="shape-7e03f78f-9a31-8012-8005-e4fe3d686e03"><g class="fills" id="fills-7e03f78f-9a31-8012-8005-e4fe3d686e03"><rect rx="0" ry="0" x="234" y="244" transform="matrix(1.000000, 0.000000, 0.000000, 1.000000, 0.000000, 0.000000)" width="283" height="212.25" style="fill: rgb(177, 178, 181); fill-opacity: 1;"/></g></g></g></mask></defs><g id="shape-7e03f78f-9a31-8012-8005-e4fe3d686e04"><g><g><g fill="none"><g class="fills" id="fills-7e03f78f-9a31-8012-8005-e4fe3d686e04"><rect rx="0" ry="0" x="163.25" y="244" width="424.5" height="212.25" transform="matrix(1.000000, 0.000000, 0.000000, 1.000000, 0.000000, 0.000000)" class="frame-background"/></g><g class="frame-children"><g id="shape-7e03f78f-9a31-8012-8005-e4fe3d686e05"><g class="fills" id="fills-7e03f78f-9a31-8012-8005-e4fe3d686e05"><path d="M304.750,456.250L446.250,456.250L376.207,385.500L304.750,456.250ZM376.207,385.500" style="fill: rgb(105, 105, 181); fill-opacity: 1;"/></g></g><g id="shape-7e03f78f-9a31-8012-8005-e4fe3d686e06"><g class="fills" id="fills-7e03f78f-9a31-8012-8005-e4fe3d686e06"><path d="M163.250,456.250L234.000,456.250L375.500,314.750L375.500,244.000L163.250,456.250Z" style="fill: rgb(39, 39, 54); fill-opacity: 1;"/></g></g><g id="shape-7e03f78f-9a31-8012-8005-e4fe3d686e07"><g class="fills" id="fills-7e03f78f-9a31-8012-8005-e4fe3d686e07"><path d="M587.750,456.250L517.000,456.250L375.500,314.750L375.500,244.000L587.750,456.250Z" style="fill: rgb(39, 39, 54); fill-opacity: 1;"/></g></g></g></g></g></g></g></g></g></g></g></g></g></g></g></g></g></g></g></g></svg>